<svg width="750" height="272" viewBox="0 0 750 272" fill="none" xmlns="http://www.w3.org/2000/svg">
<path d="M496.4 98.0241V170.674H352.492V132.956H373.173V37.9109H352.492V0.192679H496.4V68.0211H468.968L458.682 37.9109H428.036V65.7709H455.467V93.8451H428.036V132.956H458.682L468.968 98.0241H496.4Z" fill="white"/>
<path d="M328.239 117.864C326.303 119.281 323.93 121.384 321.118 124.172L309.366 136.238C309.55 136.33 310.495 137.221 312.2 138.912C313.905 140.603 316.371 143.117 319.597 146.454H335.429V171.752H298.166V171.889C296.737 170.472 295.009 168.736 292.981 166.679C290.999 164.622 288.718 162.2 286.137 159.411C277.657 168.781 267.056 173.603 254.336 173.878C245.349 173.649 237.928 171.158 232.075 166.405C226.314 161.514 223.295 154.726 223.019 146.042C223.249 138.958 225.139 133.062 228.688 128.354C232.329 123.555 237.698 119.624 244.796 116.561C239.588 110.894 236.868 103.969 236.638 95.7879C236.638 91.4 237.537 87.4693 239.334 83.9956C240.947 80.4305 243.344 77.4824 246.524 75.1514C249.842 72.7289 253.391 70.9463 257.17 69.8037C261.457 68.6153 265.697 68.0211 269.891 68.0211C273.394 68.0211 276.873 68.5239 280.33 69.5294C283.648 70.535 286.828 72.0433 289.87 74.0544C292.682 76.0198 294.94 78.5336 296.645 81.596C298.443 84.8869 299.341 88.2692 299.341 91.7429C299.341 93.6168 299.157 95.9479 298.788 98.736C298.373 100.701 297.659 102.53 296.645 104.221C295.908 105.592 294.779 107.077 293.258 108.677C292.751 109.271 292.036 110.003 291.115 110.871C290.193 111.739 289.064 112.745 287.727 113.888L300.033 125.817L301.899 124.309C303.42 122.8 304.642 121.475 305.563 120.332C306.808 119.007 307.43 117.933 307.43 117.11C307.43 115.556 306.808 114.779 305.563 114.779H302.314V94.5538H335.705V114.299C332.11 115.533 329.621 116.721 328.239 117.864ZM280.053 97.7761C281.113 96.4506 281.643 94.8509 281.643 92.9769C281.643 90.8744 280.975 88.9091 279.639 87.0808C278.532 85.481 276.735 84.6812 274.246 84.6812C272.541 84.6812 271.043 85.3896 269.753 86.8066C268.508 88.0863 267.886 89.6403 267.886 91.4686C267.886 92.8398 268.324 94.2338 269.2 95.6508C270.26 97.2962 271.112 98.3703 271.757 98.8731C272.587 99.7872 273.762 100.77 275.283 101.821C277.68 100.039 279.27 98.6903 280.053 97.7761ZM265.328 149.127C268.186 149.127 270.836 148.19 273.278 146.316L258.83 131.713L258.415 131.987L257.447 133.016L256.133 134.387C255.949 134.707 255.765 135.027 255.58 135.347C255.442 135.667 255.304 136.01 255.166 136.375C254.889 136.969 254.751 137.724 254.751 138.638V138.775C254.751 141.746 255.742 144.214 257.723 146.179C259.705 148.145 262.24 149.127 265.328 149.127Z" fill="white"/>
<path d="M119.005 170.848H29.9596V133.13H47.1042V38.0848H29.9596C29.9596 38.0848 22.1544 0.366526 53.8034 0.366526H139.471C157.187 0.366526 191.012 0.366526 191.012 0.366526C191.012 0.366526 191.012 30.0839 191.012 46.6571C191.012 57.7297 187.905 66.2662 181.69 72.2668C175.475 78.2674 166.652 82.3035 155.223 84.3752C165.509 86.0182 172.903 89.8757 177.403 95.9477C181.975 102.02 184.261 109.592 184.261 118.664V132.487H208.157V170.848H173.653C166.295 170.848 160.366 170.598 155.866 170.098C151.365 169.527 147.793 168.241 145.15 166.241C142.578 164.169 140.435 160.954 138.721 156.597C136.149 150.025 134.863 139.059 134.863 123.701C134.863 114.914 133.435 108.413 130.577 104.199C127.72 99.9124 122.505 97.7694 114.933 97.7694H101.967V133.13H119.005V170.848ZM101.967 38.0848V73.4455H116.647C124.434 73.4455 130.22 72.0525 134.006 69.2665C137.792 66.4805 139.685 61.5872 139.685 54.5865C139.685 49.4431 137.721 45.407 133.792 42.4781C129.934 39.5492 124.934 38.0848 118.79 38.0848H101.967Z" fill="white"/>
<path d="M578.109 0.366526C592.351 0.366526 597.417 11.2706 597.417 19.1829V69.8037H570.197L559.699 35.6607H529.053V0.192679L578.109 0.366526Z" fill="white"/>
<path d="M319.362 0V37.7181L281.643 37.7182L228.442 37.8921V0.17386L319.362 0Z" fill="white"/>
<path fill-rule="evenodd" clip-rule="evenodd" d="M527.311 120.266C527.311 108.031 537.23 98.1121 549.465 98.1121H591.92C598.98 98.1121 605.617 101.477 609.79 107.172L635.714 142.55C638.225 145.977 641.997 148.248 646.207 148.874C661.833 151.198 680.864 154.435 696.583 157.535C704.438 159.084 711.503 160.606 716.915 161.969C719.617 162.649 721.951 163.301 723.784 163.908C725.461 164.464 727.16 165.116 728.218 165.919C729.412 166.826 730.194 168.172 730.739 169.39C731.317 170.681 731.798 172.22 732.211 173.895C733.038 177.252 733.673 181.512 734.164 186.197C735.149 195.591 735.595 207.082 735.735 217.335C735.765 219.55 737.555 221.31 739.728 221.31C745.401 221.31 750 225.909 750 231.582V235.669C750 243.599 743.571 250.028 735.641 250.028H723.725C711.116 250.028 701.785 239.522 698.478 228.507C695.831 219.69 692.721 211.164 686.716 204.787C680.857 198.565 671.905 194.059 656.824 194.059C641.711 194.059 631.686 199.368 624.719 206.627C617.649 213.993 613.544 223.563 610.763 232.315C607.462 242.702 599.304 247.105 591.145 248.891C584.657 250.311 577.691 250.172 572.671 250.071C571.529 250.048 570.488 250.028 569.576 250.028H511.486C509.738 250.028 508.321 248.611 508.321 246.863C508.321 245.115 509.738 243.698 511.486 243.698H569.576C570.684 243.698 571.872 243.72 573.12 243.743C578.136 243.837 584.119 243.949 589.791 242.707C596.678 241.2 602.362 237.849 604.73 230.398C607.618 221.311 612.085 210.649 620.153 202.244C628.323 193.731 640.002 187.729 656.824 187.729C673.324 187.729 684.062 192.737 691.324 200.448C698.44 208.004 701.882 217.83 704.541 226.687C707.385 236.163 714.94 243.698 723.725 243.698H735.641C740.076 243.698 743.67 240.103 743.67 235.669V231.582C743.67 229.405 741.905 227.64 739.728 227.64C734.051 227.64 729.482 223.056 729.406 217.421C729.267 207.247 728.825 195.974 727.869 186.857C727.389 182.288 726.791 178.356 726.065 175.409C725.701 173.932 725.327 172.792 724.962 171.977C724.626 171.227 724.398 170.98 724.379 170.954C724.332 170.925 724.142 170.813 723.721 170.631C723.246 170.425 722.607 170.186 721.794 169.917C720.169 169.379 718.002 168.77 715.369 168.107C710.111 166.782 703.168 165.285 695.358 163.745C679.748 160.666 660.816 157.446 645.276 155.135C639.401 154.261 634.123 151.088 630.608 146.291L604.684 110.913C601.703 106.845 596.963 104.442 591.92 104.442H549.465C540.726 104.442 533.641 111.527 533.641 120.266V183.231C533.641 195.467 523.722 205.386 511.486 205.386H22.1985C8.26698 205.386 1.13349 222.087 10.7662 232.152L25.9162 241.509C27.1248 242.772 27.0809 244.776 25.8181 245.984C24.5553 247.193 22.5519 247.149 21.3433 245.886L6.19334 236.529C-7.29252 222.438 2.69441 199.056 22.1985 199.056H511.486C520.226 199.056 527.311 191.971 527.311 183.231V120.266ZM547.446 126.596C547.446 123.1 550.28 120.266 553.776 120.266H592.031C594.196 120.266 596.21 121.372 597.372 123.198L613.484 148.517C616.165 152.731 613.138 158.245 608.144 158.245H553.776C550.28 158.245 547.446 155.411 547.446 151.915V126.596ZM592.031 126.596H553.776V151.915H608.144L592.031 126.596Z" fill="white"/>
<path d="M488.871 236.071V257.699C488.871 266.675 484.463 271.163 475.646 271.163C473.322 271.163 471.094 270.845 468.962 270.208C466.861 269.603 465.126 268.712 463.758 267.534L466.431 263.047C467.514 263.97 468.834 264.702 470.394 265.243C471.954 265.784 473.593 266.054 475.312 266.054C477.922 266.054 479.831 265.418 481.041 264.145C482.282 262.903 482.903 260.978 482.903 258.368V257.174C481.948 258.224 480.786 259.036 479.418 259.609C478.049 260.15 476.569 260.421 474.977 260.421C471.572 260.421 468.882 259.482 466.909 257.604C464.967 255.726 463.996 252.909 463.996 249.153V236.071H469.964V248.389C469.964 250.649 470.474 252.352 471.492 253.498C472.543 254.612 474.023 255.169 475.932 255.169C478.065 255.169 479.752 254.516 480.993 253.211C482.266 251.906 482.903 250.012 482.903 247.53V236.071H488.871Z" fill="white"/>
<path d="M445.97 235.785C449.185 235.785 451.763 236.724 453.704 238.602C455.646 240.48 456.617 243.265 456.617 246.957V261.567H450.649V247.721C450.649 245.493 450.124 243.822 449.073 242.708C448.023 241.562 446.527 240.989 444.585 240.989C442.389 240.989 440.654 241.657 439.381 242.994C438.108 244.299 437.471 246.193 437.471 248.676V261.567H431.503V236.071H437.185V239.366C438.172 238.188 439.413 237.297 440.909 236.692C442.405 236.087 444.092 235.785 445.97 235.785Z" fill="white"/>
<path d="M423.695 236.071V261.567H418.013V258.272C417.027 259.482 415.801 260.389 414.337 260.994C412.905 261.598 411.313 261.901 409.563 261.901C407.08 261.901 404.852 261.36 402.879 260.278C400.937 259.195 399.409 257.668 398.295 255.694C397.213 253.721 396.672 251.429 396.672 248.819C396.672 246.209 397.213 243.933 398.295 241.992C399.409 240.018 400.937 238.49 402.879 237.408C404.852 236.326 407.08 235.785 409.563 235.785C411.218 235.785 412.73 236.071 414.098 236.644C415.499 237.217 416.708 238.061 417.727 239.175V236.071H423.695ZM410.231 256.792C412.427 256.792 414.242 256.06 415.674 254.596C417.106 253.132 417.822 251.206 417.822 248.819C417.822 246.432 417.106 244.506 415.674 243.042C414.242 241.578 412.427 240.846 410.231 240.846C408.035 240.846 406.221 241.578 404.788 243.042C403.388 244.506 402.688 246.432 402.688 248.819C402.688 251.206 403.388 253.132 404.788 254.596C406.221 256.06 408.035 256.792 410.231 256.792Z" fill="white"/>
<path d="M380.174 235.785C382.657 235.785 384.869 236.326 386.811 237.408C388.784 238.49 390.328 240.018 391.442 241.992C392.556 243.965 393.113 246.241 393.113 248.819C393.113 251.397 392.556 253.689 391.442 255.694C390.328 257.668 388.784 259.195 386.811 260.278C384.869 261.36 382.657 261.901 380.174 261.901C376.737 261.901 374.015 260.755 372.01 258.463V270.829H366.042V236.071H371.724V239.413C372.71 238.204 373.92 237.297 375.352 236.692C376.816 236.087 378.424 235.785 380.174 235.785ZM379.506 256.792C381.702 256.792 383.5 256.06 384.901 254.596C386.333 253.132 387.049 251.206 387.049 248.819C387.049 246.432 386.333 244.506 384.901 243.042C383.5 241.578 381.702 240.846 379.506 240.846C378.074 240.846 376.784 241.18 375.639 241.848C374.493 242.485 373.586 243.408 372.917 244.618C372.249 245.827 371.915 247.228 371.915 248.819C371.915 250.41 372.249 251.811 372.917 253.02C373.586 254.23 374.493 255.169 375.639 255.837C376.784 256.474 378.074 256.792 379.506 256.792Z" fill="white"/>
<path d="M347.96 235.785C351.175 235.785 353.721 236.724 355.599 238.602C357.477 240.448 358.416 243.233 358.416 246.957V261.567H352.448V247.721C352.448 245.493 351.954 243.822 350.968 242.708C349.981 241.562 348.565 240.989 346.719 240.989C344.713 240.989 343.106 241.657 341.896 242.994C340.687 244.299 340.082 246.177 340.082 248.628V261.567H334.114V247.721C334.114 245.493 333.621 243.822 332.634 242.708C331.647 241.562 330.231 240.989 328.385 240.989C326.348 240.989 324.725 241.642 323.515 242.947C322.337 244.252 321.749 246.145 321.749 248.628V261.567H315.781V236.071H321.462V239.318C322.417 238.172 323.61 237.297 325.043 236.692C326.475 236.087 328.067 235.785 329.817 235.785C331.727 235.785 333.414 236.151 334.878 236.883C336.374 237.583 337.552 238.634 338.411 240.034C339.461 238.697 340.814 237.663 342.469 236.931C344.124 236.167 345.955 235.785 347.96 235.785Z" fill="white"/>
<path d="M296.467 261.901C293.888 261.901 291.565 261.344 289.496 260.23C287.427 259.116 285.804 257.572 284.626 255.599C283.48 253.593 282.907 251.334 282.907 248.819C282.907 246.305 283.48 244.061 284.626 242.087C285.804 240.114 287.427 238.57 289.496 237.456C291.565 236.342 293.888 235.785 296.467 235.785C299.077 235.785 301.416 236.342 303.485 237.456C305.554 238.57 307.161 240.114 308.307 242.087C309.485 244.061 310.074 246.305 310.074 248.819C310.074 251.334 309.485 253.593 308.307 255.599C307.161 257.572 305.554 259.116 303.485 260.23C301.416 261.344 299.077 261.901 296.467 261.901ZM296.467 256.792C298.663 256.792 300.477 256.06 301.909 254.596C303.342 253.132 304.058 251.206 304.058 248.819C304.058 246.432 303.342 244.506 301.909 243.042C300.477 241.578 298.663 240.846 296.467 240.846C294.27 240.846 292.456 241.578 291.024 243.042C289.623 244.506 288.923 246.432 288.923 248.819C288.923 251.206 289.623 253.132 291.024 254.596C292.456 256.06 294.27 256.792 296.467 256.792Z" fill="white"/>
<path d="M267.294 262.044C263.92 262.044 260.864 261.312 258.127 259.848C255.421 258.352 253.289 256.299 251.729 253.689C250.201 251.079 249.438 248.135 249.438 244.856C249.438 241.578 250.217 238.634 251.777 236.024C253.337 233.414 255.469 231.377 258.175 229.912C260.912 228.416 263.968 227.668 267.341 227.668C270.079 227.668 272.577 228.146 274.837 229.101C277.097 230.056 279.007 231.44 280.566 233.254L276.556 237.026C274.137 234.416 271.161 233.111 267.628 233.111C265.336 233.111 263.283 233.621 261.469 234.639C259.655 235.626 258.238 237.01 257.22 238.793C256.201 240.575 255.692 242.596 255.692 244.856C255.692 247.116 256.201 249.137 257.22 250.92C258.238 252.702 259.655 254.103 261.469 255.121C263.283 256.108 265.336 256.601 267.628 256.601C271.161 256.601 274.137 255.28 276.556 252.638L280.566 256.458C279.007 258.272 277.081 259.657 274.789 260.612C272.53 261.567 270.031 262.044 267.294 262.044Z" fill="white"/>
<path d="M230.211 236.071V257.699C230.211 266.675 225.628 271.163 216.461 271.163C214.01 271.163 211.686 270.845 209.49 270.208C207.294 269.603 205.48 268.712 204.047 267.535L206.721 263.047C207.835 263.97 209.235 264.702 210.922 265.243C212.641 265.816 214.376 266.102 216.127 266.102C218.927 266.102 220.98 265.466 222.285 264.193C223.59 262.919 224.243 260.978 224.243 258.368V257.031C223.224 258.145 221.983 258.988 220.519 259.561C219.055 260.134 217.447 260.421 215.697 260.421C213.278 260.421 211.082 259.911 209.108 258.893C207.167 257.843 205.623 256.378 204.477 254.501C203.363 252.623 202.806 250.474 202.806 248.055C202.806 245.636 203.363 243.504 204.477 241.657C205.623 239.78 207.167 238.331 209.108 237.313C211.082 236.294 213.278 235.785 215.697 235.785C217.543 235.785 219.214 236.087 220.71 236.692C222.238 237.297 223.511 238.22 224.529 239.461V236.071H230.211ZM216.604 255.36C218.864 255.36 220.71 254.692 222.142 253.355C223.606 251.986 224.338 250.219 224.338 248.055C224.338 245.923 223.606 244.188 222.142 242.851C220.71 241.514 218.864 240.846 216.604 240.846C214.312 240.846 212.434 241.514 210.97 242.851C209.538 244.188 208.822 245.923 208.822 248.055C208.822 250.219 209.538 251.986 210.97 253.355C212.434 254.692 214.312 255.36 216.604 255.36Z" fill="white"/>
<path d="M186.456 235.785C189.671 235.785 192.249 236.724 194.191 238.602C196.132 240.48 197.103 243.265 197.103 246.957V261.567H191.135V247.721C191.135 245.493 190.61 243.822 189.559 242.708C188.509 241.562 187.013 240.989 185.071 240.989C182.875 240.989 181.141 241.657 179.867 242.994C178.594 244.299 177.958 246.193 177.958 248.676V261.567H171.99V236.071H177.671V239.366C178.658 238.188 179.899 237.297 181.395 236.692C182.891 236.087 184.578 235.785 186.456 235.785Z" fill="white"/>
<path d="M158.189 236.071H164.157V261.567H158.189V236.071ZM161.196 231.87C160.114 231.87 159.207 231.536 158.475 230.867C157.743 230.167 157.377 229.308 157.377 228.289C157.377 227.271 157.743 226.427 158.475 225.759C159.207 225.058 160.114 224.708 161.196 224.708C162.279 224.708 163.186 225.043 163.918 225.711C164.65 226.348 165.016 227.159 165.016 228.146C165.016 229.196 164.65 230.087 163.918 230.82C163.218 231.52 162.31 231.87 161.196 231.87Z" fill="white"/>
<path d="M154.459 236.071L143.525 261.567H137.366L126.433 236.071H132.64L140.565 254.978L148.729 236.071H154.459Z" fill="white"/>
<path d="M111.972 261.901C109.394 261.901 107.071 261.344 105.002 260.23C102.933 259.116 101.309 257.572 100.132 255.599C98.9859 253.593 98.413 251.334 98.413 248.819C98.413 246.305 98.9859 244.061 100.132 242.087C101.309 240.114 102.933 238.57 105.002 237.456C107.071 236.342 109.394 235.785 111.972 235.785C114.582 235.785 116.922 236.342 118.991 237.456C121.059 238.57 122.667 240.114 123.813 242.087C124.99 244.061 125.579 246.305 125.579 248.819C125.579 251.334 124.99 253.593 123.813 255.599C122.667 257.572 121.059 259.116 118.991 260.23C116.922 261.344 114.582 261.901 111.972 261.901ZM111.972 256.792C114.168 256.792 115.983 256.06 117.415 254.596C118.847 253.132 119.564 251.206 119.564 248.819C119.564 246.432 118.847 244.506 117.415 243.042C115.983 241.578 114.168 240.846 111.972 240.846C109.776 240.846 107.962 241.578 106.529 243.042C105.129 244.506 104.429 246.432 104.429 248.819C104.429 251.206 105.129 253.132 106.529 254.596C107.962 256.06 109.776 256.792 111.972 256.792Z" fill="white"/>
<path d="M79.9548 227.668C83.8698 227.668 86.9254 228.814 89.1216 231.106C91.3178 233.366 92.416 236.628 92.416 240.894V261.567H86.2093V241.132C86.2093 238.49 85.509 236.501 84.1085 235.164C82.7399 233.796 80.9415 233.111 78.7135 233.111C76.2308 233.111 74.2415 233.812 72.7455 235.212C71.2814 236.612 70.5493 238.761 70.5493 241.657V261.567H64.3426V241.132C64.3426 238.459 63.6901 236.453 62.3851 235.117C61.1119 233.78 59.3613 233.111 57.1333 233.111C54.6188 233.111 52.5976 233.827 51.0698 235.26C49.5738 236.66 48.8258 238.793 48.8258 241.657V261.567H42.6191V228.146H48.6349V232.538C49.6534 230.979 51.038 229.785 52.7886 228.958C54.5392 228.098 56.5603 227.668 58.852 227.668C61.2074 227.668 63.2604 228.114 65.011 229.005C66.7616 229.897 68.0825 231.154 68.9737 232.777C70.0878 231.154 71.5996 229.897 73.5094 229.005C75.451 228.114 77.5995 227.668 79.9548 227.668Z" fill="white"/>
</svg>
